<svg xmlns="http://www.w3.org/2000/svg" xmlns:xlink="http://www.w3.org/1999/xlink" width="500" zoomAndPan="magnify" viewBox="0 0 375 374.999991" height="500" preserveAspectRatio="xMidYMid meet" version="1.0"><defs><filter x="0%" y="0%" width="100%" height="100%" id="ca1c4f5342"><feColorMatrix values="0 0 0 0 1 0 0 0 0 1 0 0 0 0 1 0 0 0 1 0" color-interpolation-filters="sRGB"/></filter><g/><clipPath id="31712b5f66"><path d="M 265.398438 85.980469 L 361.398438 85.980469 L 361.398438 178.980469 L 265.398438 178.980469 Z M 265.398438 85.980469 " clip-rule="nonzero"/></clipPath><mask id="5f05e251bf"><g filter="url(#ca1c4f5342)"><rect x="-37.5" width="450" fill="#000000" y="-37.499999" height="449.999989" fill-opacity="0.1"/></g></mask><clipPath id="f24b036d95"><path d="M 0.398438 0.582031 L 77.648438 0.582031 L 77.648438 77.832031 L 0.398438 77.832031 Z M 0.398438 0.582031 " clip-rule="nonzero"/></clipPath><clipPath id="7afdd3fffb"><rect x="0" width="79" y="0" height="79"/></clipPath><clipPath id="855dea975a"><path d="M 0.480469 8 L 71 8 L 71 85 L 0.480469 85 Z M 0.480469 8 " clip-rule="nonzero"/></clipPath><clipPath id="db0ba1a2d8"><path d="M 139 0.800781 L 164 0.800781 L 164 85 L 139 85 Z M 139 0.800781 " clip-rule="nonzero"/></clipPath><clipPath id="84c21c261e"><rect x="0" width="299" y="0" height="113"/></clipPath></defs><g clip-path="url(#31712b5f66)"><path fill="#2b554e" d="M 313.460938 115.355469 C 313.742188 116.480469 314.097656 117.578125 314.527344 118.652344 C 314.957031 119.730469 315.457031 120.769531 316.027344 121.777344 C 316.597656 122.785156 317.234375 123.75 317.933594 124.671875 C 318.636719 125.59375 319.394531 126.460938 320.214844 127.28125 C 321.035156 128.101562 321.902344 128.859375 322.824219 129.5625 C 323.746094 130.261719 324.710938 130.898438 325.71875 131.46875 C 326.726562 132.039062 327.769531 132.539062 328.84375 132.96875 C 329.917969 133.402344 331.015625 133.757812 332.140625 134.039062 C 331.015625 134.320312 329.917969 134.675781 328.84375 135.105469 C 327.769531 135.535156 326.726562 136.035156 325.71875 136.605469 C 324.710938 137.175781 323.746094 137.8125 322.824219 138.511719 C 321.902344 139.214844 321.035156 139.972656 320.214844 140.792969 C 319.394531 141.613281 318.636719 142.480469 317.933594 143.402344 C 317.234375 144.324219 316.597656 145.289062 316.027344 146.296875 C 315.457031 147.304688 314.957031 148.347656 314.527344 149.421875 C 314.097656 150.496094 313.742188 151.59375 313.460938 152.71875 C 313.179688 151.59375 312.824219 150.496094 312.390625 149.421875 C 311.960938 148.347656 311.460938 147.304688 310.890625 146.296875 C 310.320312 145.289062 309.683594 144.324219 308.984375 143.402344 C 308.28125 142.480469 307.523438 141.613281 306.703125 140.792969 C 305.886719 139.972656 305.015625 139.214844 304.09375 138.511719 C 303.171875 137.8125 302.207031 137.175781 301.199219 136.605469 C 300.191406 136.035156 299.152344 135.535156 298.074219 135.105469 C 297 134.675781 295.902344 134.320312 294.777344 134.039062 C 295.902344 133.757812 297 133.402344 298.074219 132.96875 C 299.152344 132.539062 300.191406 132.039062 301.199219 131.46875 C 302.207031 130.898438 303.171875 130.261719 304.09375 129.5625 C 305.015625 128.859375 305.886719 128.101562 306.703125 127.28125 C 307.523438 126.460938 308.28125 125.59375 308.984375 124.671875 C 309.683594 123.75 310.320312 122.785156 310.890625 121.777344 C 311.460938 120.769531 311.960938 119.730469 312.390625 118.652344 C 312.824219 117.578125 313.179688 116.480469 313.460938 115.355469 M 313.460938 85.980469 C 313.460938 96.808594 313 105.195312 312.289062 111.695312 C 312.140625 113.039062 311.882812 114.359375 311.511719 115.660156 C 311.140625 116.960938 310.664062 118.21875 310.078125 119.4375 C 309.496094 120.65625 308.8125 121.816406 308.03125 122.917969 C 307.25 124.023438 306.382812 125.050781 305.425781 126.007812 C 304.46875 126.960938 303.441406 127.828125 302.339844 128.609375 C 301.234375 129.390625 300.074219 130.074219 298.855469 130.660156 C 297.636719 131.242188 296.378906 131.71875 295.078125 132.089844 C 293.78125 132.460938 292.460938 132.71875 291.117188 132.867188 C 284.617188 133.578125 276.226562 134.039062 265.398438 134.039062 C 276.226562 134.039062 284.617188 134.5 291.117188 135.210938 C 292.460938 135.359375 293.78125 135.617188 295.078125 135.988281 C 296.378906 136.359375 297.636719 136.835938 298.855469 137.421875 C 300.074219 138.003906 301.234375 138.6875 302.339844 139.46875 C 303.441406 140.25 304.46875 141.117188 305.425781 142.074219 C 306.382812 143.027344 307.25 144.058594 308.03125 145.160156 C 308.8125 146.261719 309.496094 147.421875 310.078125 148.640625 C 310.664062 149.859375 311.140625 151.121094 311.511719 152.417969 C 311.882812 153.71875 312.140625 155.039062 312.289062 156.382812 C 313 162.882812 313.460938 171.269531 313.460938 182.101562 C 313.460938 171.269531 313.917969 162.882812 314.632812 156.382812 C 314.777344 155.039062 315.035156 153.71875 315.40625 152.417969 C 315.777344 151.121094 316.253906 149.859375 316.839844 148.640625 C 317.425781 147.421875 318.105469 146.261719 318.886719 145.160156 C 319.667969 144.058594 320.535156 143.027344 321.492188 142.074219 C 322.449219 141.117188 323.476562 140.25 324.578125 139.46875 C 325.683594 138.6875 326.84375 138.003906 328.0625 137.421875 C 329.28125 136.835938 330.539062 136.359375 331.839844 135.988281 C 333.136719 135.617188 334.460938 135.359375 335.804688 135.210938 C 342.300781 134.5 350.691406 134.039062 361.519531 134.039062 C 350.691406 134.039062 342.300781 133.578125 335.804688 132.867188 C 334.460938 132.71875 333.136719 132.460938 331.839844 132.089844 C 330.539062 131.71875 329.28125 131.242188 328.0625 130.660156 C 326.84375 130.074219 325.683594 129.390625 324.578125 128.609375 C 323.476562 127.828125 322.449219 126.960938 321.492188 126.007812 C 320.539062 125.050781 319.667969 124.023438 318.886719 122.917969 C 318.105469 121.816406 317.425781 120.65625 316.839844 119.4375 C 316.253906 118.21875 315.777344 116.960938 315.40625 115.660156 C 315.035156 114.359375 314.777344 113.039062 314.632812 111.695312 C 313.917969 105.195312 313.460938 96.808594 313.460938 85.980469 Z M 313.460938 85.980469 " fill-opacity="1" fill-rule="nonzero"/></g><g mask="url(#5f05e251bf)"><g transform="matrix(1, 0, 0, 1, 265, 95)"><g clip-path="url(#7afdd3fffb)"><g clip-path="url(#f24b036d95)"><path fill="#2b554e" d="M 39.199219 0.582031 C 35.417969 32.535156 32.351562 35.601562 0.398438 39.382812 C 0.464844 39.390625 0.53125 39.398438 0.597656 39.40625 C 32.363281 43.175781 35.425781 46.296875 39.199219 78.183594 C 42.980469 46.230469 46.046875 43.164062 78 39.382812 C 46.046875 35.601562 42.980469 32.535156 39.199219 0.582031 Z M 39.199219 0.582031 " fill-opacity="1" fill-rule="nonzero"/></g></g></g></g><g transform="matrix(1, 0, 0, 1, 18, 118)"><g clip-path="url(#84c21c261e)"><g clip-path="url(#855dea975a)"><g fill="#2b554e" fill-opacity="1"><g transform="translate(0.785144, 84.693637)"><g><path d="M 67.015625 -66.125 L 62.890625 -55.296875 C 59.015625 -61.097656 54.972656 -65.453125 50.765625 -68.359375 C 46.554688 -71.265625 42.347656 -72.976562 38.140625 -73.5 C 33.929688 -74.019531 29.859375 -73.570312 25.921875 -72.15625 C 21.671875 -70.59375 18.316406 -68.171875 15.859375 -64.890625 C 13.398438 -61.617188 11.707031 -57.894531 10.78125 -53.71875 C 9.851562 -49.550781 9.554688 -45.289062 9.890625 -40.9375 C 10.222656 -36.582031 11.0625 -32.539062 12.40625 -28.8125 C 14.332031 -23.457031 17.34375 -18.898438 21.4375 -15.140625 C 25.539062 -11.378906 30.253906 -8.710938 35.578125 -7.140625 C 40.898438 -5.578125 46.351562 -5.46875 51.9375 -6.8125 C 55.21875 -7.632812 58.289062 -8.972656 61.15625 -10.828125 C 64.019531 -12.691406 66.492188 -15.113281 68.578125 -18.09375 L 69.375 -17.53125 C 66.09375 -11.65625 61.675781 -7.265625 56.125 -4.359375 C 50.582031 -1.453125 44.71875 0 38.53125 0 C 33.101562 0 28.039062 -0.945312 23.34375 -2.84375 C 18.65625 -4.75 14.5625 -7.429688 11.0625 -10.890625 C 7.5625 -14.347656 4.84375 -18.40625 2.90625 -23.0625 C 0.96875 -27.71875 0 -32.765625 0 -38.203125 C 0 -43.566406 1.003906 -48.554688 3.015625 -53.171875 C 5.023438 -57.785156 7.796875 -61.84375 11.328125 -65.34375 C 14.867188 -68.84375 18.96875 -71.5625 23.625 -73.5 C 28.28125 -75.4375 33.25 -76.40625 38.53125 -76.40625 C 43.75 -76.40625 48.867188 -75.507812 53.890625 -73.71875 C 58.921875 -71.9375 63.296875 -69.40625 67.015625 -66.125 Z M 67.015625 -66.125 "/></g></g></g></g><g fill="#2b554e" fill-opacity="1"><g transform="translate(73.391118, 84.693637)"><g><path d="M 63.5625 -4.578125 C 62.738281 -2.941406 61.597656 -1.769531 60.140625 -1.0625 C 58.691406 -0.351562 57.148438 0 55.515625 0 C 51.867188 0 49.113281 -1.097656 47.25 -3.296875 C 45.382812 -5.492188 43.894531 -8.082031 42.78125 -11.0625 C 42.039062 -13.21875 41.367188 -15.5625 40.765625 -18.09375 C 40.171875 -20.625 39.648438 -23.191406 39.203125 -25.796875 C 38.910156 -21.410156 37.976562 -17.242188 36.40625 -13.296875 C 34.84375 -9.347656 32.476562 -6.144531 29.3125 -3.6875 C 26.15625 -1.226562 21.929688 0 16.640625 0 C 11.804688 0 7.75 -1.335938 4.46875 -4.015625 C 1.1875 -6.703125 -0.300781 -10.648438 0 -15.859375 C 0.21875 -19.210938 1.109375 -22.078125 2.671875 -24.453125 C 4.242188 -26.835938 6.203125 -28.941406 8.546875 -30.765625 C 10.890625 -32.597656 13.328125 -34.296875 15.859375 -35.859375 C 18.390625 -37.421875 20.71875 -39.054688 22.84375 -40.765625 C 24.96875 -42.484375 26.585938 -44.457031 27.703125 -46.6875 C 29.335938 -49.820312 29.742188 -52.394531 28.921875 -54.40625 C 28.109375 -56.414062 26.566406 -57.695312 24.296875 -58.25 C 22.023438 -58.8125 19.472656 -58.457031 16.640625 -57.1875 C 14.035156 -56 11.539062 -54.304688 9.15625 -52.109375 C 6.769531 -49.910156 4.945312 -47.957031 3.6875 -46.25 L 0.109375 -55.625 C 3.390625 -57.1875 7.054688 -58.414062 11.109375 -59.3125 C 15.171875 -60.207031 19.363281 -60.65625 23.6875 -60.65625 C 29.195312 -60.65625 33.476562 -59.890625 36.53125 -58.359375 C 39.582031 -56.835938 41.890625 -54.472656 43.453125 -51.265625 C 45.015625 -48.066406 46.28125 -44.007812 47.25 -39.09375 C 48.070312 -35.300781 48.816406 -31.429688 49.484375 -27.484375 C 50.148438 -23.535156 50.945312 -19.828125 51.875 -16.359375 C 52.8125 -12.898438 54.0625 -9.976562 55.625 -7.59375 C 56.300781 -6.550781 57.328125 -5.617188 58.703125 -4.796875 C 60.078125 -3.984375 61.4375 -4.132812 62.78125 -5.25 Z M 36.296875 -42.21875 C 35.773438 -44.226562 35.140625 -46.164062 34.390625 -48.03125 C 33.648438 -49.894531 32.722656 -51.535156 31.609375 -52.953125 C 32.054688 -51.085938 32.070312 -49.128906 31.65625 -47.078125 C 31.25 -45.035156 30.601562 -43.234375 29.71875 -41.671875 C 28.519531 -39.503906 26.972656 -37.5625 25.078125 -35.84375 C 23.179688 -34.132812 21.226562 -32.460938 19.21875 -30.828125 C 17.207031 -29.191406 15.398438 -27.382812 13.796875 -25.40625 C 12.191406 -23.4375 11.09375 -21.113281 10.5 -18.4375 C 9.976562 -15.675781 10.21875 -13.046875 11.21875 -10.546875 C 12.226562 -8.054688 14.332031 -6.398438 17.53125 -5.578125 C 20.289062 -4.910156 22.859375 -5.097656 25.234375 -6.140625 C 27.617188 -7.179688 29.664062 -8.722656 31.375 -10.765625 C 33.09375 -12.816406 34.363281 -15 35.1875 -17.3125 C 36.445312 -20.957031 37.171875 -25.109375 37.359375 -29.765625 C 37.546875 -34.421875 37.191406 -38.570312 36.296875 -42.21875 Z M 36.296875 -42.21875 "/></g></g></g><g clip-path="url(#db0ba1a2d8)"><g fill="#2b554e" fill-opacity="1"><g transform="translate(139.518403, 84.693637)"><g><path d="M 17.203125 -15.75 C 17.203125 -9.863281 17.796875 -5.914062 18.984375 -3.90625 C 20.179688 -1.894531 21.96875 -0.925781 24.34375 -1 L 24.34375 0 L 0 0 L 0 -1 C 2.382812 -0.925781 4.171875 -1.894531 5.359375 -3.90625 C 6.554688 -5.914062 7.15625 -9.863281 7.15625 -15.75 L 7.15625 -60.65625 C 7.15625 -66.613281 6.554688 -70.597656 5.359375 -72.609375 C 4.171875 -74.617188 2.382812 -75.550781 0 -75.40625 L 0 -76.40625 C 3.28125 -76.40625 6.59375 -77.09375 9.9375 -78.46875 C 13.289062 -79.84375 15.710938 -81.613281 17.203125 -83.78125 Z M 17.203125 -15.75 "/></g></g></g></g><g fill="#2b554e" fill-opacity="1"><g transform="translate(166.661868, 84.693637)"><g><path d="M 31.953125 -60.65625 C 37.160156 -60.65625 41.585938 -59.425781 45.234375 -56.96875 C 48.890625 -54.507812 51.703125 -51.378906 53.671875 -47.578125 C 55.648438 -43.785156 56.597656 -39.878906 56.515625 -35.859375 C 48.921875 -35.859375 41.269531 -35.859375 33.5625 -35.859375 C 25.851562 -35.859375 18.164062 -35.859375 10.5 -35.859375 C 10.570312 -34.515625 10.679688 -33.171875 10.828125 -31.828125 C 10.984375 -30.492188 11.207031 -29.15625 11.5 -27.8125 C 12.539062 -23.570312 14.304688 -19.570312 16.796875 -15.8125 C 19.296875 -12.050781 22.445312 -9.109375 26.25 -6.984375 C 30.050781 -4.859375 34.332031 -4.054688 39.09375 -4.578125 C 43.5625 -5.097656 47.75 -6.941406 51.65625 -10.109375 C 55.570312 -13.273438 58.457031 -17.578125 60.3125 -23.015625 L 61.328125 -23.015625 C 60.285156 -18.617188 58.328125 -14.6875 55.453125 -11.21875 C 52.585938 -7.757812 49.144531 -5.023438 45.125 -3.015625 C 41.101562 -1.003906 36.710938 0 31.953125 0 C 27.773438 0 23.84375 -0.78125 20.15625 -2.34375 C 16.476562 -3.90625 13.238281 -6.082031 10.4375 -8.875 C 7.644531 -11.664062 5.46875 -14.882812 3.90625 -18.53125 C 2.34375 -22.1875 1.5625 -26.140625 1.5625 -30.390625 C 1.5625 -34.554688 2.34375 -38.484375 3.90625 -42.171875 C 5.46875 -45.859375 7.644531 -49.078125 10.4375 -51.828125 C 13.238281 -54.585938 16.476562 -56.75 20.15625 -58.3125 C 23.84375 -59.875 27.773438 -60.65625 31.953125 -60.65625 Z M 33.953125 -63.5625 L 30.265625 -63.5625 L 34.625 -76.515625 L 47.359375 -76.515625 Z M 46.46875 -37.875 C 45.945312 -43.007812 44.398438 -47.195312 41.828125 -50.4375 C 39.265625 -53.675781 36.234375 -55.890625 32.734375 -57.078125 C 29.234375 -58.273438 25.804688 -58.273438 22.453125 -57.078125 C 18.953125 -55.816406 16.160156 -53.453125 14.078125 -49.984375 C 11.992188 -46.523438 10.835938 -42.488281 10.609375 -37.875 Z M 46.46875 -37.875 "/></g></g></g><g fill="#2b554e" fill-opacity="1"><g transform="translate(231.783836, 84.693637)"><g><path d="M 63.5625 -4.578125 C 62.738281 -2.941406 61.597656 -1.769531 60.140625 -1.0625 C 58.691406 -0.351562 57.148438 0 55.515625 0 C 51.867188 0 49.113281 -1.097656 47.25 -3.296875 C 45.382812 -5.492188 43.894531 -8.082031 42.78125 -11.0625 C 42.039062 -13.21875 41.367188 -15.5625 40.765625 -18.09375 C 40.171875 -20.625 39.648438 -23.191406 39.203125 -25.796875 C 38.910156 -21.410156 37.976562 -17.242188 36.40625 -13.296875 C 34.84375 -9.347656 32.476562 -6.144531 29.3125 -3.6875 C 26.15625 -1.226562 21.929688 0 16.640625 0 C 11.804688 0 7.75 -1.335938 4.46875 -4.015625 C 1.1875 -6.703125 -0.300781 -10.648438 0 -15.859375 C 0.21875 -19.210938 1.109375 -22.078125 2.671875 -24.453125 C 4.242188 -26.835938 6.203125 -28.941406 8.546875 -30.765625 C 10.890625 -32.597656 13.328125 -34.296875 15.859375 -35.859375 C 18.390625 -37.421875 20.71875 -39.054688 22.84375 -40.765625 C 24.96875 -42.484375 26.585938 -44.457031 27.703125 -46.6875 C 29.335938 -49.820312 29.742188 -52.394531 28.921875 -54.40625 C 28.109375 -56.414062 26.566406 -57.695312 24.296875 -58.25 C 22.023438 -58.8125 19.472656 -58.457031 16.640625 -57.1875 C 14.035156 -56 11.539062 -54.304688 9.15625 -52.109375 C 6.769531 -49.910156 4.945312 -47.957031 3.6875 -46.25 L 0.109375 -55.625 C 3.390625 -57.1875 7.054688 -58.414062 11.109375 -59.3125 C 15.171875 -60.207031 19.363281 -60.65625 23.6875 -60.65625 C 29.195312 -60.65625 33.476562 -59.890625 36.53125 -58.359375 C 39.582031 -56.835938 41.890625 -54.472656 43.453125 -51.265625 C 45.015625 -48.066406 46.28125 -44.007812 47.25 -39.09375 C 48.070312 -35.300781 48.816406 -31.429688 49.484375 -27.484375 C 50.148438 -23.535156 50.945312 -19.828125 51.875 -16.359375 C 52.8125 -12.898438 54.0625 -9.976562 55.625 -7.59375 C 56.300781 -6.550781 57.328125 -5.617188 58.703125 -4.796875 C 60.078125 -3.984375 61.4375 -4.132812 62.78125 -5.25 Z M 36.296875 -42.21875 C 35.773438 -44.226562 35.140625 -46.164062 34.390625 -48.03125 C 33.648438 -49.894531 32.722656 -51.535156 31.609375 -52.953125 C 32.054688 -51.085938 32.070312 -49.128906 31.65625 -47.078125 C 31.25 -45.035156 30.601562 -43.234375 29.71875 -41.671875 C 28.519531 -39.503906 26.972656 -37.5625 25.078125 -35.84375 C 23.179688 -34.132812 21.226562 -32.460938 19.21875 -30.828125 C 17.207031 -29.191406 15.398438 -27.382812 13.796875 -25.40625 C 12.191406 -23.4375 11.09375 -21.113281 10.5 -18.4375 C 9.976562 -15.675781 10.21875 -13.046875 11.21875 -10.546875 C 12.226562 -8.054688 14.332031 -6.398438 17.53125 -5.578125 C 20.289062 -4.910156 22.859375 -5.097656 25.234375 -6.140625 C 27.617188 -7.179688 29.664062 -8.722656 31.375 -10.765625 C 33.09375 -12.816406 34.363281 -15 35.1875 -17.3125 C 36.445312 -20.957031 37.171875 -25.109375 37.359375 -29.765625 C 37.546875 -34.421875 37.191406 -38.570312 36.296875 -42.21875 Z M 36.296875 -42.21875 "/></g></g></g></g></g></svg>